<?xml version="1.0" standalone="no"?><!DOCTYPE svg PUBLIC "-//W3C//DTD SVG 1.1//EN" "http://www.w3.org/Graphics/SVG/1.1/DTD/svg11.dtd"><svg t="1697290415987" class="icon" viewBox="0 0 1024 1024" version="1.1" xmlns="http://www.w3.org/2000/svg" p-id="6513" xmlns:xlink="http://www.w3.org/1999/xlink" width="200" height="200"><path d="M413.342553 513.697876a86.700064 86.700064 0 0 0-5.057504 20.230015h-0.65025a99.488323 99.488323 0 0 0-4.479504-19.941015l-59.823044-173.833627H311.397728l80.125309 222.313413h31.862273l76.874056-209.525153v11.198758h21.675016v174.122627h-21.675016v24.203768h71.455303V538.262894h-21.675016V364.429267h21.675016v-24.276018H474.321597zM712.385522 357.493262q-19.868765-17.340013-55.849291-17.340013h-63.146546v222.313413h28.900021v-83.087561h28.900021a80.992309 80.992309 0 0 0 57.800042-19.146264 67.264799 67.264799 0 0 0 23.264517-53.031539 62.496296 62.496296 0 0 0-19.868764-49.708036z m-23.842518 84.749312a59.028293 59.028293 0 0 1-39.954279 11.849009H622.072956V365.440768h29.261271q50.575037 0 50.575037 42.916531a42.555281 42.555281 0 0 1-13.36626 33.885275z m164.00762-61.123545s-113.793833-134.168348-151.21936-174.628378c-11.560008-12.499259-20.085515-21.169266-37.786778-21.675016s-302.438722 0-302.438722 0c-9.681507 0-22.253016 2.312002-38.292528 21.169266-37.497777 44.072532-121.307839 136.33585-149.846609 170.365625-19.363014 22.469766-39.954279 50.575037 0 90.457066 46.384534 54.18754 173.400127 203.094899 301.571721 351.207507 18.207013 21.097015 29.694772 21.675016 37.786777 21.675016s19.218514 0 37.786778-21.675016c127.087843-146.739857 247.889932-289.000212 301.210471-351.207507 31.862273-32.079023 22.903267-59.823044 1.22825-85.688563z m-22.397516 61.195795c-44.795033 53.898539-178.457631 205.623651-285.098709 332.855994-15.606011 18.568264-26.299019 21.675016-32.946024 21.675016s-17.556763-3.323502-32.873774-21.675016C371.509772 646.782474 233.006421 489.205108 194.063642 442.314824c-10.837508-11.487758-10.620758-26.515769 0-42.988782 23.914768-29.478022 110.976081-122.82509 142.549355-161.045367 23.481267-28.249771 35.691526-21.675016 43.928032-21.675016H643.747971c30.489522 0 29.767022 4.840754 43.855783 21.675016 30.417272 36.125026 129.327595 145.367106 142.549354 161.045367 11.704509 17.267763 7.947506 29.261271 0 42.988782z" p-id="6514" fill="#ffffff"></path></svg>