<?xml version="1.0" standalone="no"?><!DOCTYPE svg PUBLIC "-//W3C//DTD SVG 1.1//EN" "http://www.w3.org/Graphics/SVG/1.1/DTD/svg11.dtd"><svg t="1697290437831" class="icon" viewBox="0 0 1024 1024" version="1.1" xmlns="http://www.w3.org/2000/svg" p-id="7672" xmlns:xlink="http://www.w3.org/1999/xlink" width="200" height="200"><path d="M1017.36 244.6v-50.68A102.18 102.18 0 0 0 915.19 91.75H108.75A102.18 102.18 0 0 0 6.58 193.92v50.74h1010.78zM772.27 539.19h-56.36v46.71h56.36a23.36 23.36 0 1 0 0-46.71z m0 0" fill="#ffffff" p-id="7673"></path><path d="M6.58 312.72v517.36a102.18 102.18 0 0 0 102.17 102.17h806.5a102.18 102.18 0 0 0 102.17-102.17V312.72zM414.63 526l-93.49 207.48A38.21 38.21 0 0 1 286.35 756h-0.28a38.21 38.21 0 0 1-34.74-23L161 525.57a34.07 34.07 0 0 1 62.49-27.19l63.37 145.42L352.59 498a34 34 0 1 1 62 28z m135 207.57a34.06 34.06 0 0 1-68.11 0V505.13a34.06 34.06 0 0 1 68.11 0zM772.27 654h-56.36v79.58a34.06 34.06 0 0 1-68.11 0V505.13a34.08 34.08 0 0 1 34.05-34.05h90.42a91.47 91.47 0 1 1 0 182.93z m0 0" fill="#ffffff" p-id="7674"></path></svg>