<?xml version="1.0" standalone="no"?><!DOCTYPE svg PUBLIC "-//W3C//DTD SVG 1.1//EN" "http://www.w3.org/Graphics/SVG/1.1/DTD/svg11.dtd"><svg t="1697290464197" class="icon" viewBox="0 0 1024 1024" version="1.1" xmlns="http://www.w3.org/2000/svg" p-id="8882" xmlns:xlink="http://www.w3.org/1999/xlink" width="200" height="200"><path d="M810.841842 558.452379c7.290906 0 13.682083 4.762358 15.822818 11.6034l0.465377 1.75292 10.145218 50.695066c1.14793 5.724137 5.212222 10.424444 10.703671 12.39454 4.622745 1.659845 9.152414 3.536865 13.573495 5.615549 4.622745 2.171759 9.943555 2.109709 14.457711-0.108588l1.892534-1.08588 43.000833-28.667222c6.049901-4.033267 13.930284-3.62994 19.514808 0.775628l1.458181 1.303056 27.751981 27.736468c5.119147 5.150172 6.298102 12.952993 3.055975 19.297632l-0.977291 1.69087-28.682735 43.000833a16.691521 16.691521 0 0 0-1.178955 16.350245c2.078684 4.421081 3.955704 8.950751 5.615549 13.573495 1.768433 4.870946 5.662087 8.624987 10.533032 10.207269l1.861508 0.496402 50.695066 10.145218c7.166806 1.427156 12.487616 7.352956 13.263244 14.488737l0.093076 1.799457v39.246793c0 7.306419-4.762358 13.682083-11.618912 15.83833l-1.737408 0.449864-50.695066 10.145218a16.691521 16.691521 0 0 0-12.39454 10.703671c-1.659845 4.622745-3.536865 9.152414-5.615549 13.573495-2.171759 4.622745-2.109709 9.943555 0.108588 14.457712l1.08588 1.892533 28.667222 43.000833c4.033267 6.049901 3.62994 13.930284-0.775629 19.514808l-1.303055 1.458181-27.736468 27.751981a16.629471 16.629471 0 0 1-19.297633 3.055976l-1.690869-0.977292-43.000833-28.682735a16.691521 16.691521 0 0 0-16.350245-1.178955c-4.421081 2.078684-8.950751 3.955704-13.573495 5.615549a16.691521 16.691521 0 0 0-10.222782 10.533032l-0.480889 1.861508-10.145218 50.695066a16.629471 16.629471 0 0 1-14.488737 13.263244l-1.81497 0.093076h-39.23128c-7.306419 0-13.682083-4.762358-15.83833-11.618912l-0.449864-1.737408-10.145218-50.695066a16.691521 16.691521 0 0 0-10.703671-12.39454 157.917923 157.917923 0 0 1-13.573495-5.615549 16.707034 16.707034 0 0 0-14.457712 0.108588l-1.892533 1.08588-43.000833 28.667222c-6.049901 4.033267-13.930284 3.62994-19.514808-0.775628l-1.458182-1.303056-27.75198-27.736468a16.629471 16.629471 0 0 1-3.055976-19.297632l0.977292-1.69087 28.682734-43.000833c3.226614-4.870946 3.676478-11.075972 1.178956-16.350245a160.027632 160.027632 0 0 1-5.615549-13.573495 16.691521 16.691521 0 0 0-10.533033-10.222781l-1.861508-0.48089-50.695066-10.145218a16.629471 16.629471 0 0 1-13.263244-14.488737L558.529955 810.748754v-39.23128c0-7.290906 4.762358-13.682083 11.603399-15.822817l1.75292-0.465377 50.695066-10.145218c5.724137-1.14793 10.424444-5.212222 12.394541-10.703671 1.659845-4.622745 3.536865-9.152414 5.615549-13.573495 2.171759-4.622745 2.109709-9.943555-0.108588-14.457712l-1.08588-1.892533-28.667222-43.000833c-4.033267-6.049901-3.62994-13.930284 0.775628-19.514808l1.303056-1.458181 27.736468-27.751981a16.629471 16.629471 0 0 1 19.297632-3.055976l1.69087 0.977292 43.000833 28.682735c4.870946 3.226614 11.075972 3.676478 16.350245 1.178955 4.421081-2.078684 8.950751-3.955704 13.573495-5.615549 4.870946-1.768433 8.624987-5.662087 10.207268-10.533033l0.496403-1.861507 10.145218-50.695066c1.427156-7.166806 7.352956-12.487616 14.488736-13.263244l1.799458-0.093076h39.246792zM461.731543 471.194195c77.423217 6.747966 159.65533 37.928224 233.277968 85.877566l-0.279226 1.194467 1.194468 0.775629a78.664223 78.664223 0 0 0-99.280423 9.819454l-27.720956 27.736468-2.575086 2.699187a78.679735 78.679735 0 0 0-9.261002 93.416673l1.241006 1.970096-2.047659 0.465377A78.664223 78.664223 0 0 0 496.479691 771.517474v39.246793l0.077562 3.490327a78.679735 78.679735 0 0 0 59.72338 72.878035l2.063171 0.465377 0.775628-1.178955a78.493584 78.493584 0 0 0-13.232218 44.319402L0.077576 930.753965c0-229.53944 90.236597-420.281953 307.334959-458.458378l6.623866-1.101392L387.891728 545.049522l73.855327-73.855327z m350.661556 213.452909A108.587963 108.587963 0 1 0 868.005648 867.928073 107.889897 107.889897 0 0 0 899.806409 791.14087a108.587963 108.587963 0 0 0-87.397798-106.493766zM387.891728 545.359773l-79.672539 239.234795L387.891728 864.267107l79.672539-79.579464L387.891728 545.375286zM387.891728 0c128.506097 0 232.688491 104.182394 232.688491 232.688491 0 128.506097-104.182394 232.688491-232.688491 232.688492-128.506097 0-232.688491-104.182394-232.688491-232.688492 0-128.506097 104.182394-232.688491 232.688491-232.688491z" fill="#ffffff" p-id="8883"></path></svg>