<?xml version="1.0" standalone="no"?><!DOCTYPE svg PUBLIC "-//W3C//DTD SVG 1.1//EN" "http://www.w3.org/Graphics/SVG/1.1/DTD/svg11.dtd"><svg t="1694259143700" class="icon" viewBox="0 0 1024 1024" version="1.1" xmlns="http://www.w3.org/2000/svg" p-id="4839" xmlns:xlink="http://www.w3.org/1999/xlink" width="200" height="200"><path d="M918.52 549.94c-9.3 0-18.66-3.09-26.43-9.44l-360-294.25c-10.26-8.39-25.01-8.39-35.27 0L136.81 540.5c-17.88 14.63-44.21 11.97-58.82-5.91-14.61-17.87-11.97-44.21 5.91-58.82l412.91-337.5c10.26-8.39 25.01-8.39 35.27 0L945 475.77c17.88 14.61 20.53 40.95 5.91 58.82-8.26 10.11-20.27 15.35-32.39 15.35z" p-id="4840" fill="#bfbfbf"></path><path d="M918.52 894.53c-9.3 0-18.66-3.09-26.43-9.44l-360-294.25c-10.26-8.39-25.01-8.39-35.27 0L136.81 885.09c-17.88 14.63-44.21 11.97-58.82-5.91-14.61-17.87-11.97-44.21 5.91-58.82l412.91-337.5c10.26-8.39 25.01-8.39 35.27 0L945 820.36c17.88 14.61 20.53 40.95 5.91 58.82-8.26 10.11-20.27 15.35-32.39 15.35z" p-id="4841" fill="#bfbfbf"></path></svg>