<?xml version="1.0" standalone="no"?><!DOCTYPE svg PUBLIC "-//W3C//DTD SVG 1.1//EN" "http://www.w3.org/Graphics/SVG/1.1/DTD/svg11.dtd"><svg t="1697290488995" class="icon" viewBox="0 0 1024 1024" version="1.1" xmlns="http://www.w3.org/2000/svg" p-id="10620" xmlns:xlink="http://www.w3.org/1999/xlink" width="200" height="200"><path d="M786.9952 243.8144h-696.32a44.8512 44.8512 0 0 0-41.9328 48.7424v682.7008a44.3904 44.3904 0 0 0 41.984 48.7424h487.5776v-195.072a44.8512 44.8512 0 0 1 41.984-48.7424h208.64V292.5568a44.8512 44.8512 0 0 0-41.9328-48.7424z m-153.2928 438.8352H341.0944V585.216h292.608v97.4848z m97.4848-195.072H341.0944V390.144h390.144v97.536zM146.0736 585.216h97.536v97.4848H146.0736V585.216z m0-195.072h97.536v97.536H146.0736V390.0928z" fill="#ffffff" p-id="10621"></path><path d="M828.928 847.9744h-138.9568a48.7424 48.7424 0 0 0-48.7424 48.7424V1024l187.6992-176.0256zM970.8544 48.7424H292.5568a48.7424 48.7424 0 0 0-48.7424 48.7936v68.2496h611.9424a48.7424 48.7424 0 0 1 51.712 48.7424v565.6576h63.3856A48.7424 48.7424 0 0 0 1024 731.4432V97.536a48.7424 48.7424 0 0 0-53.1456-48.7936z" fill="#ffffff" p-id="10622"></path></svg>