<?xml version="1.0" standalone="no"?><!DOCTYPE svg PUBLIC "-//W3C//DTD SVG 1.1//EN" "http://www.w3.org/Graphics/SVG/1.1/DTD/svg11.dtd"><svg t="1694259439881" class="icon" viewBox="0 0 1081 1024" version="1.1" xmlns="http://www.w3.org/2000/svg" p-id="18709" xmlns:xlink="http://www.w3.org/1999/xlink" width="211.1328125" height="200"><path d="M728.610795 489.65248a24.839868 24.839868 0 0 1-7.220892 17.482159l-31.847934 31.771924-84.111989-84.066383 31.923943-31.923943a24.809464 24.809464 0 0 1 34.842704 0l49.269285 49.254083a24.839868 24.839868 0 0 1 7.144883 17.48216z m-158.023519 0l84.11199 84.066383-198.536523 198.536523a24.186187 24.186187 0 0 1-17.40615 7.296901h-49.269285A24.687849 24.687849 0 0 1 364.845064 754.925245V705.671161a24.505427 24.505427 0 0 1 7.220892-17.482159zM166.764598 1023.99848a45.42321 45.42321 0 0 1-45.788056-46.06169v-491.020648a45.772854 45.772854 0 0 1 91.545708 0v445.567034h653.452711V486.916142a45.803257 45.803257 0 0 1 91.591313 0v491.020648a45.362403 45.362403 0 0 1-45.605633 46.06169H166.764598z m868.331253-552.892291a34.964319 34.964319 0 0 1-27.621812-14.289765L544.850498 109.757557 78.244064 457.27248a44.328675 44.328675 0 0 1-32.030356 13.833709 45.605633 45.605633 0 0 1-32.729643-14.289765 43.538178 43.538178 0 0 1-13.332046-31.467887 45.468816 45.468816 0 0 1 13.377652-32.684037L512.956958 13.833709a44.237464 44.237464 0 0 1 31.923943-13.833709 44.997558 44.997558 0 0 1 32.456009 14.289765l490.093334 378.070698a45.757652 45.757652 0 0 1 13.68169 32.988074 44.343877 44.343877 0 0 1-13.210431 31.619906 46.092093 46.092093 0 0 1-32.805652 14.137746z" fill="#bfbfbf" p-id="18710"></path></svg>